<svg xmlns="http://www.w3.org/2000/svg" xmlns:xlink="http://www.w3.org/1999/xlink" version="1.1" id="Layer_1" x="0px" y="0px" viewBox="0 0 72 45" enable-background="new 0 0 72 45" xml:space="preserve"><g id="maestro"><g><linearGradient id="SVGID_1_" gradientUnits="userSpaceOnUse" x1="36" y1="0.15" x2="36" y2="44.5342"><stop offset="0" style="stop-color:#FFFFFF"/><stop offset="1" style="stop-color:#BDCCD4"/></linearGradient><path fill="url(#SVGID_1_)" d="M72,40.5c0,2.475-2.025,4.5-4.5,4.5h-63C2.025,45,0,42.975,0,40.5v-36C0,2.025,2.025,0,4.5,0h63    C69.975,0,72,2.025,72,4.5V40.5z"/><g><path fill="#999999" d="M67.5,0.15c2.399,0,4.35,1.951,4.35,4.35v36c0,2.399-1.951,4.35-4.35,4.35h-63     c-2.399,0-4.35-1.951-4.35-4.35v-36c0-2.399,1.951-4.35,4.35-4.35H67.5 M67.5,0h-63C2.025,0,0,2.025,0,4.5v36     C0,42.975,2.025,45,4.5,45h63c2.475,0,4.5-2.025,4.5-4.5v-36C72,2.025,69.975,0,67.5,0L67.5,0z"/></g></g><g><g><g><g><circle fill="#ED1C24" cx="45.037" cy="22.5" r="13.459"/><g><path fill="#00A2E5" d="M34.64,31.048c-0.372-0.451-0.714-0.927-1.025-1.425h4.77c0.286-0.457,0.545-0.933,0.776-1.425H32.84        c-0.215-0.461-0.407-0.937-0.57-1.425h7.46c0.449-1.342,0.692-2.778,0.692-4.272c0-0.978-0.104-1.932-0.302-2.851h-8.238        c0.104-0.486,0.236-0.961,0.391-1.425h7.457c-0.164-0.488-0.354-0.964-0.569-1.425h-6.318c0.231-0.492,0.49-0.968,0.775-1.426        h4.767c-0.311-0.497-0.654-0.973-1.025-1.424h-2.717c0.418-0.508,0.872-0.984,1.358-1.425        c-2.389-2.166-5.559-3.486-9.037-3.486c-7.434,0-13.459,6.026-13.459,13.461c0,7.434,6.026,13.46,13.459,13.46        c3.478,0,6.649-1.319,9.037-3.485c0.487-0.442,0.942-0.919,1.36-1.428H34.64z"/></g></g></g><g><g><path fill="#003375" d="M35.808,26.138c-0.575,0.152-1.131,0.227-1.719,0.226c-1.876-0.002-2.853-0.856-2.853-2.49       c0-1.909,1.244-3.313,2.932-3.313c1.381,0,2.263,0.787,2.263,2.021c0,0.409-0.06,0.808-0.206,1.372h-3.336       c-0.119,0.798,0.464,1.148,1.456,1.148c0.594,0,1.131-0.107,1.726-0.346L35.808,26.138z M34.911,22.826       c0-0.12,0.185-0.977-0.78-0.996c-0.533,0-0.915,0.355-1.07,0.996H34.911z"/><path fill="#003375" d="M36.939,22.452c0,0.705,0.397,1.192,1.299,1.555c0.69,0.283,0.799,0.364,0.799,0.617       c0,0.35-0.305,0.51-0.982,0.506c-0.508-0.004-0.972-0.066-1.52-0.217l-0.242,1.286c0.487,0.113,1.169,0.15,1.774,0.164       c1.801,0,2.633-0.59,2.633-1.865c0-0.767-0.347-1.217-1.202-1.553c-0.715-0.286-0.799-0.347-0.799-0.606       c0-0.304,0.283-0.458,0.836-0.458c0.335,0,0.793,0.031,1.229,0.084l0.244-1.293c-0.443-0.062-1.116-0.111-1.505-0.111       C37.593,20.56,36.933,21.42,36.939,22.452z"/><path fill="#003375" d="M30.321,26.271h-1.4l0.033-0.586c-0.427,0.462-0.995,0.678-1.767,0.678       c-0.913,0-1.538-0.624-1.538-1.522c0-1.365,1.087-2.152,2.957-2.152c0.192,0,0.436,0.015,0.687,0.043       c0.052-0.183,0.066-0.261,0.066-0.361c0-0.374-0.294-0.511-1.081-0.511c-0.776,0.003-1.299,0.118-1.784,0.248l0.239-1.252       c0.84-0.214,1.39-0.296,2.012-0.296c1.448,0,2.212,0.568,2.212,1.634c0.012,0.285-0.087,0.856-0.137,1.106       C30.765,23.664,30.363,25.773,30.321,26.271z M29.093,23.781c-0.177-0.017-0.254-0.023-0.376-0.023       c-0.954,0-1.438,0.284-1.438,0.845c0,0.352,0.236,0.573,0.604,0.573C28.569,25.176,29.064,24.602,29.093,23.781z"/><path fill="#003375" d="M43.649,26.183c-0.459,0.126-0.817,0.181-1.204,0.181c-0.857,0-1.325-0.438-1.325-1.219       c-0.027-0.214,0.182-1.205,0.23-1.481c0.047-0.277,0.79-4.311,0.79-4.311h1.666l-0.252,1.335h0.854l-0.232,1.362h-0.858       c0,0-0.471,2.365-0.471,2.545c0,0.287,0.174,0.411,0.573,0.411c0.191,0,0.338-0.018,0.452-0.052L43.649,26.183z"/><path fill="#003375" d="M51.091,20.56c-1.221,0-2.175,0.503-2.729,1.342l0.481-1.245c-0.886-0.325-1.457,0.139-1.974,0.799       c0,0-0.087,0.11-0.173,0.21v-0.978h-1.564c-0.212,1.726-0.586,3.478-0.879,5.208l-0.071,0.376h1.682       c0.16-0.878,0.291-1.591,0.422-2.159c0.357-1.559,0.959-2.036,1.862-1.825c-0.209,0.448-0.323,0.967-0.323,1.541       c0,1.394,0.757,2.534,2.636,2.534c1.896,0,3.269-1.013,3.269-3.323C53.731,21.647,52.816,20.56,51.091,20.56z M50.601,25.008       c-0.594,0.009-0.954-0.489-0.954-1.236c0-0.884,0.526-1.883,1.37-1.883c0.682,0,0.915,0.541,0.915,1.116       C51.932,24.263,51.417,25.008,50.601,25.008z"/><polygon fill="#003375" points="24.867,26.272 23.191,26.272 24.187,21.025 21.894,26.272 20.367,26.272 20.088,21.056        19.089,26.272 17.569,26.272 18.864,19.447 21.482,19.447 21.7,23.252 23.359,19.447 26.187,19.447      "/></g><g><path fill="#FFFFFF" d="M36.229,25.717c-0.575,0.152-1.131,0.227-1.719,0.226c-1.876-0.002-2.853-0.856-2.853-2.49       c0-1.909,1.243-3.313,2.932-3.313c1.381,0,2.263,0.787,2.263,2.021c0,0.409-0.06,0.807-0.206,1.372H33.31       c-0.119,0.797,0.463,1.148,1.455,1.148c0.594,0,1.132-0.107,1.727-0.346L36.229,25.717z M35.332,22.406       c0-0.12,0.186-0.977-0.78-0.996c-0.533,0-0.915,0.354-1.07,0.996H35.332z"/><path fill="#FFFFFF" d="M37.359,22.031c0,0.706,0.397,1.192,1.299,1.556c0.69,0.283,0.799,0.364,0.799,0.616       c0,0.351-0.305,0.511-0.981,0.507c-0.509-0.004-0.973-0.066-1.52-0.217l-0.243,1.286c0.487,0.113,1.169,0.15,1.774,0.165       c1.801,0,2.634-0.59,2.634-1.865c0-0.766-0.347-1.217-1.203-1.553c-0.715-0.286-0.799-0.348-0.799-0.606       c0-0.304,0.284-0.458,0.836-0.458c0.335,0,0.793,0.031,1.229,0.084l0.244-1.293c-0.443-0.062-1.116-0.111-1.505-0.111       C38.014,20.14,37.353,20.999,37.359,22.031z"/><path fill="#FFFFFF" d="M30.742,25.851h-1.4l0.034-0.586c-0.427,0.462-0.995,0.677-1.767,0.677       c-0.913,0-1.539-0.624-1.539-1.522c0-1.364,1.087-2.152,2.957-2.152c0.192,0,0.436,0.015,0.688,0.042       c0.052-0.183,0.066-0.261,0.066-0.36c0-0.374-0.294-0.511-1.08-0.511c-0.776,0.004-1.299,0.118-1.784,0.249l0.238-1.252       c0.84-0.214,1.39-0.296,2.012-0.296c1.447,0,2.212,0.568,2.212,1.634c0.012,0.285-0.087,0.855-0.136,1.106       C31.185,23.244,30.784,25.353,30.742,25.851z M29.514,23.361c-0.177-0.018-0.254-0.023-0.376-0.023       c-0.954,0-1.438,0.284-1.438,0.844c0,0.353,0.237,0.573,0.604,0.573C28.99,24.755,29.485,24.181,29.514,23.361z"/><path fill="#FFFFFF" d="M44.069,25.762c-0.459,0.126-0.817,0.181-1.204,0.181c-0.857,0-1.325-0.438-1.325-1.219       c-0.027-0.214,0.182-1.205,0.23-1.481c0.048-0.277,0.79-4.311,0.79-4.311h1.665l-0.252,1.334h0.854l-0.232,1.363h-0.858       c0,0-0.471,2.365-0.471,2.545c0,0.288,0.174,0.411,0.573,0.411c0.191,0,0.338-0.017,0.452-0.052L44.069,25.762z"/><path fill="#FFFFFF" d="M52.353,22.585c0,1.258-0.516,2.003-1.331,2.003c-0.594,0.009-0.954-0.489-0.954-1.236       c0-0.884,0.526-1.883,1.37-1.883C52.12,21.469,52.353,22.01,52.353,22.585z M54.151,22.62c0-1.393-0.915-2.481-2.639-2.481       c-1.983,0-3.266,1.322-3.266,3.269c0,1.394,0.756,2.534,2.636,2.534C52.778,25.943,54.151,24.93,54.151,22.62z"/><path fill="#FFFFFF" d="M45.553,20.266c-0.212,1.727-0.586,3.478-0.879,5.208l-0.071,0.377h1.682       c0.606-3.342,0.81-4.294,2.08-3.959l0.611-1.581c-0.886-0.325-1.457,0.139-1.973,0.799c0.047-0.297,0.134-0.584,0.113-0.845       H45.553z"/><polygon fill="#FFFFFF" points="25.287,25.851 23.612,25.851 24.608,20.605 22.315,25.851 20.788,25.851 20.508,20.636        19.509,25.851 17.989,25.851 19.284,19.027 21.902,19.027 22.041,23.252 23.884,19.027 26.608,19.027      "/></g></g></g></g></g></svg>